<svg width="512" height="512" viewBox="0 0 512 512" fill="none" xmlns="http://www.w3.org/2000/svg">
  <!-- Background Circle -->
  <circle cx="256" cy="256" r="256" fill="#4F46E5"/>
  
  <!-- Ballot Box -->
  <rect x="140" y="180" width="232" height="200" rx="16" fill="#312E81" stroke="#818CF8" stroke-width="4"/>
  
  <!-- Ballot Slot -->
  <rect x="180" y="160" width="152" height="40" rx="8" fill="#1E1B4B"/>
  
  <!-- Ballot Paper -->
  <rect x="200" y="140" width="112" height="60" rx="4" fill="#F3F4F6" transform="rotate(-5 256 170)"/>
  
  <!-- Lock Icon -->
  <circle cx="256" cy="280" r="30" fill="#818CF8"/>
  <rect x="246" y="290" width="20" height="35" rx="4" fill="#818CF8"/>
  <circle cx="256" cy="280" r="18" fill="#312E81"/>
  <rect x="251" y="285" width="10" height="20" rx="2" fill="#312E81"/>
  
  <!-- Checkmarks (encryption symbols) -->
  <path d="M 160 240 L 170 250 L 185 235" stroke="#A5B4FC" stroke-width="4" stroke-linecap="round" fill="none"/>
  <path d="M 327 240 L 337 250 L 352 235" stroke="#A5B4FC" stroke-width="4" stroke-linecap="round" fill="none"/>
  
  <!-- Bottom decoration (encrypted data bars) -->
  <rect x="160" y="340" width="60" height="8" rx="4" fill="#818CF8" opacity="0.6"/>
  <rect x="230" y="340" width="80" height="8" rx="4" fill="#818CF8" opacity="0.6"/>
  <rect x="320" y="340" width="40" height="8" rx="4" fill="#818CF8" opacity="0.6"/>
</svg>

